<svg xmlns="http://www.w3.org/2000/svg" width="113" height="53" viewBox="0 0 113 53" fill="none"><path d="M78.0625 33.8881C78.4364 33.5925 78.6959 33.2515 79.0775 33.0469C79.9169 32.5846 80.7792 32.4179 81.6872 32.7665C82.2825 32.9939 82.603 33.4637 82.7327 34.1078C82.9235 35.0475 82.6182 35.9265 82.458 36.8131C82.2748 37.8513 82.023 38.8819 81.8093 39.9201C81.7025 40.4354 81.6262 40.5642 81.0768 40.6097C80.68 40.64 80.2755 40.6627 79.8787 40.5491C79.6421 40.4809 79.5658 40.3596 79.6192 40.1095C79.9245 38.6015 80.2679 37.1011 80.5197 35.5855C80.5579 35.3658 80.6113 35.1687 80.5197 34.9414C80.3518 34.5094 80.0542 34.373 79.6116 34.5625C78.7112 34.9338 78.2151 35.6613 77.9175 36.5252C77.5741 37.5255 77.4749 38.5864 77.2307 39.617C77.1926 39.7837 77.1697 39.958 77.1392 40.1247C77.0781 40.5566 76.7118 40.5794 76.4142 40.6173C76.0174 40.6627 75.613 40.6703 75.2162 40.5566C74.9796 40.4884 74.9109 40.3596 74.9643 40.1095C75.2696 38.6622 75.5596 37.2223 75.8495 35.775C76.0327 34.858 76.2082 33.9411 76.3837 33.0242C76.4371 32.7362 76.7347 32.7893 76.9179 32.6907C76.9942 32.6453 77.1163 32.6832 77.2155 32.6756C78.528 32.6225 78.2533 32.9029 78.0625 33.8881Z" fill="#2F74B6"></path><path d="M28.2633 33.8729C28.6067 33.5925 28.8738 33.2591 29.2554 33.0469C30.0948 32.5846 30.9571 32.4179 31.8652 32.7665C32.4604 32.9939 32.7809 33.4637 32.9106 34.1078C33.0938 35.0475 32.7961 35.9265 32.6359 36.8131C32.4451 37.8513 32.1933 38.8819 31.9873 39.9201C31.8804 40.443 31.8041 40.5642 31.2623 40.6097C30.8655 40.64 30.4611 40.6627 30.0642 40.549C29.8277 40.4808 29.7514 40.3596 29.7972 40.1095C30.1024 38.6015 30.4458 37.1011 30.6976 35.5855C30.7358 35.3657 30.7892 35.1687 30.6976 34.9414C30.5297 34.5019 30.2398 34.373 29.7972 34.5549C28.8967 34.9262 28.4083 35.6537 28.1031 36.5176C27.7902 37.389 27.7292 38.3211 27.4926 39.2078C27.4163 39.5033 27.3705 39.814 27.3247 40.1171C27.2637 40.5415 26.8974 40.5794 26.5998 40.6097C26.203 40.6476 25.7985 40.6627 25.4017 40.549C25.1651 40.4808 25.0965 40.352 25.1499 40.1019C25.4551 38.6546 25.7451 37.2148 26.0351 35.7674C26.2182 34.8504 26.3937 33.9335 26.5693 33.0166C26.5845 32.9181 26.6303 32.8575 26.7219 32.8271C26.8821 32.7741 27.05 32.6907 27.2179 32.6832C28.4007 32.5695 28.5228 32.7059 28.2633 33.8729Z" fill="#2F74B6"></path><path d="M6.56134 30.0854C7.70599 30.0854 8.85064 30.0929 9.9953 30.0778C10.3311 30.0778 10.4684 30.1839 10.476 30.5325C10.4837 30.9417 10.3463 31.313 10.2242 31.6843C10.1632 31.8662 9.9953 31.9874 9.7511 31.9799C9.04142 31.9647 8.32411 31.9799 7.61442 31.9723C7.39312 31.9723 7.30155 32.0177 7.25576 32.2754C6.92763 33.988 6.55371 35.7006 6.21032 37.4057C6.04244 38.2241 5.89745 39.0501 5.74483 39.8761C5.65325 40.3914 5.43959 40.5884 4.85963 40.6111C4.45519 40.6263 4.05074 40.6414 3.66156 40.5353C3.48605 40.4899 3.34869 40.3989 3.39448 40.1943C3.7455 38.5196 4.09653 36.8525 4.44756 35.1777C4.65359 34.1775 4.83674 33.1696 5.0504 32.1693C5.10382 31.9117 4.93594 31.9723 4.81384 31.9723C4.11179 31.9723 3.41737 31.9571 2.71532 31.9799C2.42534 31.9874 2.28035 31.9117 2.31851 31.601C2.3414 31.4115 2.29561 31.2145 2.3414 31.0402C2.63901 29.9414 2.66953 30.0778 3.56999 30.0854C4.54676 30.0929 5.55405 30.0854 6.56134 30.0854Z" fill="#2F74B6"></path><path d="M36.4052 40.6927C35.7108 40.6548 35.0164 40.617 34.3906 40.2532C34.1006 40.0865 33.9862 39.8819 34.0777 39.5485C34.1464 39.2908 34.1617 39.018 34.2685 38.7679C34.4059 38.4497 34.6119 38.4193 34.8561 38.5936C35.4055 38.9877 36.0237 39.1317 36.6876 39.0938C37.092 39.071 37.4278 38.9195 37.6109 38.5633C37.8169 38.1768 37.672 37.8965 37.2751 37.6388C36.886 37.3887 36.4434 37.2599 36.0465 37.0326C34.6043 36.2066 34.8332 34.4864 35.6421 33.6073C36.1763 33.0238 36.8554 32.7662 37.6414 32.6449C38.374 32.5313 39.0608 32.6146 39.74 32.8192C40.3505 33.0011 40.5107 33.3497 40.3123 33.9635C40.3047 34.0014 40.297 34.0393 40.2894 34.0696C40.0757 34.7364 40.0299 34.7516 39.3813 34.4409C38.8624 34.1984 38.3282 34.0696 37.7559 34.2439C37.443 34.3424 37.2294 34.5167 37.1683 34.8425C37.0996 35.2063 37.3515 35.373 37.6185 35.5321C37.9925 35.7519 38.3969 35.8959 38.7861 36.0929C39.9307 36.6688 40.091 37.9268 39.6179 38.9801C39.1676 39.9804 38.2901 40.4048 37.2751 40.6018C36.9852 40.67 36.7028 40.7306 36.4052 40.6927Z" fill="#2F74B6"></path><path d="M88.5873 32.5781C89.4649 32.5933 90.1059 32.6918 90.6859 33.048C90.8766 33.1692 90.9911 33.3283 90.9606 33.5784C90.9071 33.9725 90.8537 34.3589 90.6477 34.7075C90.5027 34.9652 90.3119 35.0182 90.0601 34.8439C89.7091 34.5939 89.3657 34.3514 88.9002 34.321C88.1218 34.268 87.4427 34.8515 87.1451 35.4805C86.8322 36.1473 86.6872 36.8521 86.6109 37.5796C86.5193 38.4889 87.2824 39.08 88.1981 38.8526C88.5797 38.7541 88.9002 38.5723 89.2207 38.3601C89.3352 38.2843 89.4496 38.2161 89.5717 38.1631C89.8159 38.057 89.9456 38.1176 89.9609 38.4131C90.022 39.6483 89.297 40.4667 88.0303 40.6259C87.4274 40.7017 86.8322 40.732 86.237 40.588C85.1381 40.3228 84.581 39.6407 84.4513 38.5041C84.2758 36.9961 84.6421 35.6169 85.4433 34.3514C86.237 33.1465 87.3969 32.6312 88.5873 32.5781Z" fill="#2F74B6"></path><path d="M63.2058 33.7229C63.6331 33.2 64.1062 32.8211 64.7472 32.6468C65.1517 32.5332 65.5027 32.6317 65.8766 32.7226C66.0903 32.7757 66.1132 32.9424 66.0751 33.1015C65.9835 33.5562 65.9224 34.0184 65.7774 34.4655C65.6782 34.7838 65.4798 34.8369 65.1975 34.7687C64.4725 34.5868 63.9994 34.7914 63.5492 35.3976C63.015 36.1175 62.7861 36.9284 62.6334 37.7847C62.4961 38.5728 62.3129 39.3533 62.1603 40.1338C62.0764 40.5582 61.7177 40.5734 61.4201 40.6037C61.0386 40.6416 60.6417 40.6567 60.2602 40.543C60.0236 40.4748 59.932 40.3612 59.9855 40.1111C60.3136 38.5122 60.6341 36.9056 60.9622 35.2991C61.1149 34.5413 61.2751 33.7835 61.4201 33.0182C61.4735 32.7529 61.6948 32.7605 61.8703 32.7075C62.2137 32.609 62.5724 32.6393 62.9234 32.6847C63.3126 32.7302 63.305 33.0257 63.2287 33.2985C63.1981 33.4425 63.1829 33.5562 63.2058 33.7229Z" fill="#2F74B6"></path><path d="M12.696 33.7075C13.2531 33.0709 13.8406 32.5859 14.7029 32.5859C14.9013 32.5859 15.0998 32.6314 15.2905 32.6769C15.5271 32.7299 15.6187 32.8966 15.5652 33.124C15.4584 33.5635 15.4126 34.0182 15.2676 34.4577C15.1608 34.776 14.97 34.829 14.6953 34.7684C13.9551 34.5941 13.482 34.7911 13.0394 35.3898C12.5128 36.1097 12.2763 36.9205 12.1237 37.7768C11.9863 38.5649 11.8032 39.3455 11.6582 40.126C11.5819 40.558 11.2232 40.5731 10.9256 40.6034C10.5441 40.6413 10.1472 40.6565 9.7657 40.5504C9.52914 40.4822 9.42993 40.3685 9.47572 40.1184C9.82674 38.3831 10.1778 36.6477 10.5288 34.9124C10.6585 34.2834 10.7882 33.662 10.9027 33.033C10.9485 32.7678 11.1698 32.7754 11.3529 32.7148C11.6963 32.6087 12.055 32.6466 12.406 32.6845C12.7952 32.7223 12.7876 33.0255 12.7189 33.2983C12.696 33.4347 12.6655 33.5559 12.696 33.7075Z" fill="#2F74B6"></path><path d="M92.5408 40.6183C92.35 40.6258 92.1058 40.6183 91.8616 40.5425C91.6251 40.4743 91.5488 40.3454 91.6022 40.103C91.9074 38.6556 92.205 37.2158 92.4874 35.7684C92.6552 34.9348 92.7926 34.0937 92.9529 33.2601C93.0368 32.8357 93.2123 32.6993 93.7923 32.669C94.128 32.6538 94.4638 32.6614 94.8072 32.7145C95.1658 32.7751 95.2116 32.9645 95.1582 33.2298C94.998 34.0406 94.8148 34.8439 94.6546 35.6471C94.3875 36.9581 94.128 38.2767 93.8686 39.5952C93.838 39.7619 93.8075 39.9362 93.7846 40.103C93.7083 40.5652 93.3191 40.5425 92.991 40.6107C92.8613 40.641 92.7316 40.6183 92.5408 40.6183Z" fill="#2F74B6"></path><path d="M19.8231 20.1058C19.7849 20.0982 19.7468 20.0907 19.7086 20.0831C19.5255 20.0376 19.2813 20.1967 19.1744 19.9315C19.0829 19.7193 19.2508 19.007 19.4034 18.9085C19.5178 18.8327 19.6552 18.8554 19.7697 18.8782C20.0444 18.9236 20.1131 18.7569 20.1512 18.5523C20.1741 18.4462 20.1741 18.3326 20.2046 18.2265C20.2733 18.0219 20.2046 17.7491 20.4717 17.6657C20.8304 17.552 21.2043 17.5217 21.5706 17.6506C21.8148 17.7339 21.769 17.9158 21.7232 18.0825C21.5401 18.863 21.5324 18.863 22.3337 18.8706C22.7152 18.8706 22.7839 18.9615 22.6847 19.348C22.6695 19.3935 22.6695 19.4465 22.6618 19.492C22.5855 19.9921 22.4863 20.0831 21.9979 20.0831C21.3493 20.0831 21.3493 20.0831 21.1967 20.7196C21.0746 21.2425 20.922 21.7654 20.838 22.2958C20.7464 22.8642 20.9372 23.0839 21.4943 22.9021C21.7232 22.8263 21.9445 22.8339 21.9064 23.2052C21.8529 23.7508 21.8148 24.0918 21.0746 24.2131C20.3191 24.3343 19.6018 24.1979 19.3652 23.5235C19.2584 23.2128 19.2737 22.8945 19.3194 22.599C19.4644 21.7654 19.6476 20.9394 19.8231 20.1058Z" fill="#2F74B6"></path><path d="M29.6978 24.1045C28.9729 24.1045 28.95 24.0969 29.0873 23.4224C29.4002 21.8159 29.7283 20.217 30.0565 18.6105C30.1633 18.08 30.2854 17.5495 30.3694 17.0191C30.4075 16.7918 30.5067 16.7084 30.7204 16.6554C31.0409 16.572 31.3538 16.572 31.6743 16.6629C31.8727 16.716 31.8956 16.8145 31.8574 16.9812C31.4148 19.1485 30.9722 21.3158 30.5296 23.4831C30.4075 24.0969 30.3922 24.1045 29.6978 24.1045Z" fill="#2E73B5"></path><path d="M16.7275 19.5047C17.2083 18.8682 17.8798 18.603 18.414 18.7924C18.5208 18.8303 18.6124 18.853 18.6276 18.9667C18.6658 19.3607 18.559 19.7245 18.3987 20.0806C18.33 20.2246 18.1927 20.164 18.1011 20.1488C17.8951 20.1261 17.6967 20.0049 17.4906 20.1564C17.2312 20.3534 16.9946 20.5732 16.8267 20.8612C16.4757 21.4598 16.3994 22.1343 16.2697 22.8011C16.2086 23.1194 16.1781 23.4377 16.0941 23.7484C16.0636 23.8772 15.9873 23.9908 15.8042 24.0439C15.4913 24.1348 15.1784 24.1045 14.8656 24.0818C14.5985 24.0666 14.5451 23.8696 14.5908 23.6347C14.8961 22.1494 15.2013 20.6717 15.4989 19.1865C15.5295 19.0425 15.5752 18.9894 15.7202 18.9364C15.911 18.8682 16.0865 18.8758 16.2773 18.8758C16.8115 18.8758 16.8649 18.9515 16.7275 19.5047Z" fill="#2E73B5"></path><path d="M89.9768 48.3179C90.2439 48.1209 90.5033 47.9694 90.8086 47.886C91.7395 47.6208 92.3119 48.2119 92.1669 49.1288C92.0524 49.8714 91.8693 50.5989 91.7243 51.334C91.6632 51.6447 91.213 51.8417 90.9688 51.6523C90.8543 51.5613 90.8925 51.4401 90.923 51.3113C91.068 50.5232 91.3504 49.7654 91.3504 48.9545C91.3504 48.5377 91.1291 48.4013 90.7399 48.5832C90.0531 48.9166 89.8242 49.5532 89.6715 50.2276C89.5876 50.6141 89.5189 51.0006 89.4426 51.3795C89.3816 51.6447 88.9084 51.819 88.6871 51.6523C88.6261 51.6068 88.6185 51.5538 88.6337 51.4628C88.8627 50.3792 89.0763 49.2955 89.29 48.2119C89.3587 47.8784 89.6105 47.8633 89.8699 47.9087C90.137 47.9466 90.0531 48.1285 89.9768 48.3179Z" fill="#616465"></path><path d="M79.1085 51.7509C78.7651 51.7661 78.4751 51.6827 78.1851 51.5463C78.0325 51.4781 77.9867 51.3872 77.9867 51.2356C77.9791 50.7809 78.0859 50.7052 78.4827 50.9098C78.8719 51.1144 79.2535 51.1674 79.6503 50.9249C79.9555 50.7431 79.9784 50.4399 79.6808 50.2429C79.4824 50.1065 79.2611 49.9928 79.0398 49.8868C78.5438 49.6518 78.4446 49.2275 78.5285 48.7576C78.6125 48.3105 78.933 48.0302 79.3679 47.8938C79.7648 47.7649 80.1768 47.7801 80.5813 47.8938C80.9094 47.9847 80.9857 48.1741 80.8942 48.5076C80.8255 48.7652 80.711 48.7501 80.5126 48.6591C80.3142 48.5606 80.1082 48.4848 79.8716 48.5C79.5816 48.5151 79.3985 48.6591 79.3069 48.9092C79.2153 49.1669 79.4595 49.2199 79.6045 49.3108C79.8334 49.4548 80.0776 49.5685 80.3066 49.7125C80.7034 49.9625 80.7263 50.3717 80.6423 50.7506C80.5355 51.2129 80.1921 51.5236 79.7419 51.6676C79.5435 51.7282 79.3145 51.8115 79.1085 51.7509Z" fill="#616465"></path><path d="M83.084 47.8941C83.3664 47.8941 83.5877 47.9017 83.8013 47.8941C83.9768 47.8865 84.1066 47.932 84.0913 48.1442C84.0837 48.3412 84.0531 48.5155 83.8242 48.5761C83.7861 48.5837 83.7479 48.5761 83.7098 48.5761C82.9314 48.614 82.9314 48.614 82.794 49.3794C82.733 49.7431 82.6643 50.1068 82.5728 50.463C82.4507 50.9404 82.6491 51.1299 83.1298 51.0238C83.2443 51.001 83.4274 50.9101 83.4732 51.1071C83.5266 51.3345 83.4274 51.5542 83.2214 51.6527C82.8627 51.8195 82.4583 51.8422 82.1073 51.63C81.7715 51.433 81.7563 51.0996 81.7868 50.7358C81.8402 50.0917 82.0157 49.4703 82.1378 48.8413C82.1836 48.5761 82.1302 48.5609 81.9241 48.5761C81.7639 48.5837 81.6265 48.5988 81.6418 48.3563C81.657 48.1442 81.657 47.8865 81.9165 47.9092C82.3515 47.9396 82.382 47.7046 82.4278 47.3788C82.4507 47.2424 82.4049 47.015 82.6338 46.9468C82.8169 46.8938 83.023 46.8483 83.1756 46.9696C83.3206 47.0757 83.2824 47.2803 83.2137 47.4243C83.1451 47.5682 83.2366 47.7274 83.084 47.8941Z" fill="#616465"></path><path d="M94.3559 31.8265C94.2567 31.8265 94.1499 31.8417 94.0507 31.8265C93.5013 31.7204 93.2952 31.6371 93.3181 31.0612C93.3257 30.7959 93.3639 30.5459 93.4555 30.3034C93.7149 29.5759 94.417 29.4546 95.2259 29.6062C95.7982 29.7123 95.8745 29.9699 95.844 30.364C95.7829 31.2885 95.4853 31.8644 94.3559 31.8265Z" fill="#2E73B5"></path><path d="M103.185 48.1659C103.574 47.9765 103.895 47.6885 104.375 47.8704C104.681 47.9841 104.52 48.1887 104.52 48.3251C104.52 48.4842 104.421 48.7191 104.192 48.6357C103.628 48.4311 103.414 48.8631 103.177 49.1738C102.88 49.5678 102.788 50.068 102.712 50.5529C102.658 50.8561 102.636 51.1668 102.552 51.4623C102.452 51.7957 102.14 51.6669 101.918 51.6669C101.674 51.6669 101.766 51.5078 101.796 51.3562C102.01 50.2953 102.208 49.2344 102.414 48.1735C102.452 47.9841 102.552 47.8855 102.75 47.8931C102.948 47.8931 103.193 47.8325 103.185 48.1659Z" fill="#616465"></path><path d="M86.5274 47.5135C86.2146 47.5135 86.1383 47.3771 86.2909 47.1195C86.4282 46.8921 86.6037 46.6799 86.7335 46.4374C86.9166 46.104 87.2142 46.1192 87.5118 46.1495C87.6873 46.1722 87.7484 46.301 87.6339 46.445C87.3821 46.7633 87.1074 47.074 86.8479 47.3923C86.7487 47.5135 86.6343 47.5211 86.5274 47.5135Z" fill="#616465"></path><path d="M110.702 22.5293C110.695 22.3853 110.733 22.1731 110.527 22.0443C109.939 21.6881 109.367 21.3017 108.795 20.9228C107.284 19.9376 105.78 18.9449 104.269 17.9522C104.132 17.8613 103.995 17.8082 104.094 17.5657C104.666 16.1866 104.903 14.7316 104.933 13.2463C104.949 12.1248 104.788 11.0336 104.475 9.95751C103.812 7.68413 102.598 5.76691 100.805 4.19828C99.8053 3.32682 98.6912 2.63723 97.4702 2.13709C95.6006 1.36414 93.6547 1.07618 91.6248 1.28836C90.2131 1.43992 88.8777 1.80366 87.6033 2.40989C85.9092 3.21315 84.4822 4.365 83.3223 5.83511C82.4753 6.9036 81.7961 8.08576 81.384 9.38158C80.8956 10.8972 80.6438 12.4431 80.8117 14.0572C80.9185 15.1029 81.0788 16.1184 81.4146 17.1111C82.0861 19.0889 83.246 20.7485 84.7875 22.1504C85.5887 22.8779 86.4815 23.4917 87.4583 23.9615C88.8548 24.6284 90.3276 25.0679 91.8919 25.1664C93.029 25.2422 94.166 25.2119 95.2725 24.9769C97.5465 24.4844 99.5535 23.4689 101.232 21.8473C101.385 21.7033 101.484 21.6881 101.667 21.8094C103.59 23.09 105.521 24.3404 107.436 25.6287C107.856 25.909 108.215 26.0379 108.703 25.8181C110.107 25.1816 110.756 23.8403 110.702 22.5293ZM92.7924 22.9764C87.3667 22.9688 82.9789 18.5888 82.9942 13.2009C82.9636 7.9342 87.2752 3.2662 93.1892 3.44049C98.1799 3.58447 102.736 7.60077 102.697 13.2918C102.667 18.7327 98.2257 22.984 92.7924 22.9764Z" fill="#2E73B5"></path><path d="M49.448 34.669C49.4175 34.2825 49.3031 33.8961 49.097 33.5551C48.5247 32.6306 47.4792 32.4032 46.3956 32.7063C45.7241 32.8958 45.1594 33.2671 44.6329 33.8658C44.7092 33.5626 44.7702 33.3732 44.7931 33.1686C44.816 32.964 44.8465 32.7745 44.5108 32.7139C44.1521 32.6533 43.8087 32.6533 43.4577 32.676C43.2288 32.6912 42.9541 32.7518 42.893 33.0549C42.7862 33.5626 42.687 34.0704 42.5878 34.5705C42.3207 35.9118 42.046 37.2455 41.7789 38.5868C41.4965 39.9812 41.1913 41.3755 40.9166 42.7774C40.8632 43.0578 40.8632 43.3154 41.3058 43.3685C41.6491 43.4139 41.9849 43.4291 42.3207 43.4064C42.893 43.3609 43.0075 43.2472 43.1143 42.7547C43.2822 41.9438 43.4424 41.1406 43.5722 40.3297C43.618 40.0342 43.7248 40.0039 43.9232 40.1706C44.3047 40.4964 44.7702 40.6556 45.251 40.6783C46.7619 40.7617 47.8532 40.0721 48.5857 38.7838C49.3107 37.5107 49.5549 36.124 49.448 34.669ZM47.2427 35.6314C47.2503 36.5256 47.0366 37.3743 46.5483 38.117C45.8767 39.1324 44.8847 39.1627 44.1369 38.1624C43.9156 37.8669 44.1826 37.5562 44.2208 37.2531C44.32 36.4423 44.6787 35.7299 45.2128 35.1161C45.5181 34.7675 45.9073 34.5099 46.3651 34.419C46.823 34.328 47.2045 34.6387 47.2427 35.1085C47.2503 35.2753 47.2427 35.4571 47.2427 35.6314Z" fill="#2E73B5"></path><path d="M23.8671 32.7373C23.6153 32.6312 23.3482 32.6615 23.0887 32.6615C22.3943 32.6615 22.234 32.7904 22.1043 33.4951C21.2649 32.5176 20.0287 32.3963 18.9527 32.7752C18.1133 33.0707 17.5104 33.6467 17.0526 34.412C16.2055 35.8367 15.9308 37.3674 16.1979 38.9815C16.32 39.709 16.7321 40.2698 17.4647 40.5502C18.6475 40.9973 20.1508 40.3835 20.9215 39.5272C20.7994 39.7242 20.8605 39.9439 20.7765 40.1561C20.7155 40.3228 20.7231 40.5047 21.0207 40.5578C21.3259 40.6184 21.6236 40.6108 21.9212 40.6184C22.4706 40.6184 22.6537 40.4365 22.7529 39.9061C22.959 38.7921 23.1879 37.6857 23.4168 36.5793C23.6534 35.4199 23.89 34.2681 24.1189 33.1086C24.1494 32.9116 24.0426 32.8055 23.8671 32.7373ZM21.3336 36.1322C21.2267 36.837 20.9139 37.4508 20.4713 38.0267C20.1508 38.4435 19.754 38.7087 19.2732 38.8527C18.8001 38.9967 18.3651 38.6708 18.327 38.1707C18.3117 37.9964 18.327 37.8145 18.327 37.6402C18.4033 36.5793 18.5559 35.5563 19.3724 34.753C20.0592 34.0786 21.1352 34.4424 21.4938 35.2001C21.6236 35.4881 21.387 35.8215 21.3336 36.1322Z" fill="#2E73B5"></path><path d="M104.224 32.7353C103.957 32.6292 103.682 32.6595 103.407 32.6595C102.743 32.6595 102.568 32.8111 102.461 33.4931C101.515 32.508 100.439 32.3791 99.2406 32.8035C98.4012 33.099 97.8212 33.6825 97.3786 34.4328C96.5468 35.8498 96.2569 37.373 96.5468 38.9719C96.7453 40.0935 97.5541 40.7073 98.6835 40.6921C99.7061 40.677 100.546 40.245 101.286 39.4948C101.232 39.7297 101.187 39.9192 101.141 40.1086C101.095 40.336 101.072 40.4951 101.4 40.5557C101.759 40.6239 102.102 40.6239 102.453 40.6012C102.881 40.5709 103.01 40.3814 103.102 39.9116C103.285 38.9189 103.491 37.9338 103.689 36.9411C103.949 35.6604 104.208 34.3873 104.468 33.1066C104.498 32.9172 104.392 32.8111 104.224 32.7353ZM101.866 35.3724C101.652 36.3424 101.454 37.32 100.774 38.1081C100.454 38.4718 100.065 38.737 99.6069 38.8659C99.1338 39.0023 98.7064 38.6764 98.6683 38.1687C98.6606 38.0095 98.6683 37.8428 98.6683 37.6761C98.6835 36.7743 98.8438 35.9105 99.3627 35.1527C100.172 33.9705 101.293 34.3418 101.805 35.1299C101.858 35.2133 101.889 35.2891 101.866 35.3724Z" fill="#2E73B5"></path><path d="M58.7046 32.7526C58.2238 32.6087 57.7431 32.6162 57.2623 32.7602C56.8961 32.8663 57.0334 33.2452 56.8732 33.4725C55.9727 32.5026 54.8891 32.3965 53.7139 32.7905C52.8669 33.0785 52.2716 33.6696 51.8214 34.4349C50.9896 35.852 50.7149 37.3676 50.9896 38.9741C51.1193 39.7168 51.5314 40.2699 52.2869 40.5579C53.4316 40.9898 54.9807 40.3533 55.7209 39.5425C55.5835 39.7243 55.6598 39.9289 55.5911 40.1184C55.5148 40.3306 55.5148 40.4973 55.8506 40.5655C56.2093 40.6337 56.5527 40.6337 56.9037 40.6109C57.331 40.5806 57.4607 40.3836 57.5523 39.9138C57.7355 38.9362 57.9262 37.9587 58.1246 36.9811C58.3841 35.6929 58.6512 34.4046 58.9183 33.1164C58.9488 32.9345 58.8572 32.7981 58.7046 32.7526ZM56.3161 35.367C56.1024 36.3522 55.8964 37.3449 55.1943 38.1405C54.8815 38.4967 54.4999 38.7468 54.042 38.868C53.5613 38.9969 53.1416 38.671 53.111 38.1633C53.1034 37.9966 53.111 37.8374 53.111 37.6707C53.1339 36.7841 53.2942 35.9278 53.7978 35.1776C54.5838 33.9954 55.7285 34.3364 56.2398 35.1321C56.3008 35.2079 56.339 35.2761 56.3161 35.367Z" fill="#2E73B5"></path><path d="M72.7225 32.8892C71.9518 32.6088 71.1658 32.5178 70.3416 32.6542C69.2275 32.8285 68.3194 33.3287 67.6708 34.238C66.755 35.5187 66.3888 36.9433 66.5414 38.5271C66.6253 39.4137 67.2587 40.2322 68.1134 40.4822C69.2962 40.8308 70.4637 40.7096 71.6236 40.4443C72.4936 40.2473 72.7378 39.8912 72.7301 38.9818C72.7301 38.5574 72.6538 38.512 72.2341 38.6332C71.5168 38.8454 70.8071 39.0424 70.044 39.0273C69.2275 39.0121 68.7696 38.7924 68.6323 37.9436C68.5483 37.4511 68.7162 37.201 69.2199 37.201C69.3114 37.201 69.3954 37.201 69.487 37.201C70.2424 37.2237 70.9979 37.1631 71.7152 36.9585C72.7759 36.6554 73.7451 36.2159 73.9053 34.8973C73.9969 34.1471 73.4932 33.1771 72.7225 32.8892ZM71.2421 35.5187C70.7613 35.6854 70.2653 35.8218 69.8075 35.7688C69.7083 35.7688 69.6701 35.7688 69.6319 35.7688C68.9146 35.7688 68.9299 35.8445 69.2962 35.155C69.6548 34.4957 70.2272 34.1471 70.9979 34.1774C71.3871 34.1926 71.7381 34.4275 71.7992 34.723C71.8602 34.9958 71.5931 35.3974 71.2421 35.5187Z" fill="#2E73B5"></path><path d="M40.6179 16.6263C40.3126 16.596 39.9998 16.5733 39.6869 16.6642C39.5038 16.7172 39.4275 16.8385 39.3969 16.9673C39.2443 17.6872 39.1146 18.4147 38.9772 19.1422C38.9238 19.127 38.8551 19.127 38.8093 19.0891C37.8631 18.3162 36.4132 18.877 35.8485 19.7484C35.238 20.6957 34.9633 21.7111 35.1083 22.8326C35.2228 23.742 35.6349 24.2194 36.5506 24.2573C37.1916 24.28 37.7257 23.9996 38.2599 23.5374C38.2141 23.7874 38.092 24.0148 38.3286 24.0678C38.6796 24.1436 39.0459 24.1739 39.4046 24.0299C39.4885 23.9921 39.5267 23.9238 39.5419 23.8253C39.6869 23.0145 39.8395 22.2037 39.9998 21.3928C40.2898 19.9454 40.5721 18.4981 40.885 17.0583C40.9384 16.7703 40.8239 16.6415 40.6179 16.6263ZM38.6262 20.8472C38.4888 21.5974 38.2675 22.2719 37.6189 22.7417C37.39 22.9084 37.1458 23.0751 36.8711 22.9236C36.5887 22.772 36.5964 22.4537 36.5506 22.1885C36.6498 21.552 36.7566 20.9381 37.1229 20.4077C37.3976 20.0136 37.8478 19.9227 38.2675 20.15C38.5499 20.3016 38.6949 20.4759 38.6262 20.8472Z" fill="#2E73B5"></path><path d="M8.32468 18.612C8.27889 18.0967 7.82866 17.5208 7.32502 17.3465C6.69164 17.1268 6.043 17.1343 5.39437 17.1343C5.16544 17.1343 4.93651 17.1419 4.70758 17.1343C3.80712 17.1116 3.82238 17.3389 3.68502 17.9982C3.27294 19.87 2.91429 21.7569 2.53274 23.6362C2.47932 23.8938 2.56326 24.0757 2.84561 24.0984C3.11269 24.1136 3.37978 24.1136 3.64687 24.0984C3.92921 24.0833 4.08183 23.909 4.12762 23.6362C4.23445 23.083 4.33366 22.5222 4.43286 21.969C4.47102 21.772 4.54733 21.6735 4.77626 21.6735C5.14254 21.6735 5.5012 21.6584 5.86749 21.6205C7.48527 21.431 8.44678 20.0746 8.32468 18.612ZM6.71454 19.2562C6.5085 19.9685 6.23378 20.461 5.18833 20.4686C5.16544 20.4686 5.13491 20.4686 5.11202 20.4686C4.8602 20.4914 4.69995 20.4914 4.79915 20.1352C4.94414 19.6199 5.02045 19.0743 5.11202 18.5438C5.13491 18.4302 5.1807 18.3544 5.3028 18.3468C5.58514 18.3468 5.86749 18.3165 6.13458 18.362C6.58481 18.4453 6.83663 18.8394 6.71454 19.2562Z" fill="#2E73B5"></path><path d="M28.3622 18.9983C28.2554 18.8241 27.2328 18.7634 27.1412 19.0438C26.9963 19.4985 26.8742 19.1954 26.7215 19.0741C26.6529 19.0211 26.5842 18.9756 26.5079 18.9301C25.615 18.43 24.4017 18.8468 23.8218 19.7107C23.1579 20.6958 22.8755 21.8022 23.0663 22.9767C23.196 23.7876 23.5699 24.1968 24.4856 24.2498C25.1419 24.2801 25.6913 23.9998 26.1645 23.5224C26.1111 23.7573 26.0119 23.9922 26.34 24.068C26.6147 24.1286 26.8971 24.1437 27.1641 24.0604C27.3168 24.0149 27.4465 23.924 27.477 23.7345C27.7288 22.3932 27.9807 21.052 28.2935 19.7258C28.3546 19.4909 28.4996 19.2257 28.3622 18.9983ZM26.5689 20.8701C26.4087 21.6658 26.1568 22.3857 25.4166 22.8479C25.3022 22.9161 25.1877 22.9995 25.0427 22.9692C24.7527 23.0146 24.4933 22.7646 24.5085 22.2265C24.5314 21.59 24.6688 20.961 25.0503 20.423C25.3327 20.0214 25.7906 19.9228 26.2255 20.1653C26.5231 20.3169 26.6376 20.5139 26.5689 20.8701Z" fill="#2E73B5"></path><path d="M13.8177 20.3995C13.7948 19.7023 13.4667 19.1794 12.8257 18.9218C12.0168 18.5959 11.185 18.6414 10.3914 18.99C8.83467 19.672 8.35391 21.6726 8.65915 22.9987C8.72783 23.2943 8.90335 23.5974 9.19333 23.8096C10.1472 24.5219 11.9176 24.3627 12.8028 23.4685C13.5277 22.7411 13.8406 21.8317 13.8177 20.8087C13.8177 20.6723 13.8254 20.5359 13.8177 20.3995ZM11.7345 22.635C11.4826 23.0063 10.8111 23.1654 10.4219 22.9457C10.1472 22.7941 10.0862 22.4758 10.0938 22.2333C10.1167 21.4755 10.2464 20.7253 10.8645 20.1797C11.269 19.816 11.8718 19.8463 12.1694 20.2252C12.3373 20.4374 12.2839 20.6723 12.2992 20.983C12.3373 21.5589 12.0855 22.1121 11.7345 22.635Z" fill="#2E73B5"></path><path d="M43.2201 21.9077C43.2278 21.9001 43.243 21.9077 43.3346 21.9077C43.6169 21.9911 43.9527 21.8319 44.3037 21.8168C44.5555 21.8016 44.7997 21.688 45.0439 21.6046C45.6849 21.3924 46.1352 20.8089 46.1581 20.18C46.1733 19.604 45.7307 19.0736 45.0439 18.8614C43.594 18.4067 42.0984 19.1115 41.5031 20.5892C41.3124 21.0666 41.1979 21.5591 41.1521 22.0517C41.0682 23.052 41.2971 23.9841 42.602 24.1963C43.2354 24.3023 43.8382 24.2266 44.4563 24.1205C45.0745 24.0068 45.2958 23.9235 45.3263 23.1278C45.3415 22.855 45.2805 22.7792 44.9829 22.8777C44.4334 23.052 43.8764 23.1884 43.2888 23.1353C42.8538 23.0975 42.6325 22.7565 42.6478 22.173C42.6707 21.6652 43.037 22.0062 43.2201 21.9077ZM44.1435 19.8541C44.3648 19.8844 44.5708 19.945 44.6319 20.18C44.7005 20.4452 44.5784 20.6195 44.3266 20.7407C43.8764 20.9529 43.4033 20.915 42.9301 20.915C43.0217 20.2633 43.6627 19.7935 44.1435 19.8541Z" fill="#2E73B5"></path><path d="M97.0577 46.1803C96.8288 46.0136 96.3633 46.1879 96.3099 46.4683C96.203 47.029 96.0962 47.5974 95.9894 48.1657C95.0126 47.4458 94.0129 47.9384 93.5856 48.6659C93.2498 49.2418 93.0666 49.8859 93.1124 50.5376C93.1735 51.3712 93.5321 51.8031 94.425 51.7349C94.7684 51.7046 95.0736 51.5 95.3941 51.2954C95.3331 51.6516 95.5391 51.6667 95.7986 51.6743C96.1343 51.6819 96.1115 51.4166 96.1496 51.2423C96.4777 49.6434 96.7906 48.0369 97.1188 46.438C97.134 46.3319 97.1493 46.2485 97.0577 46.1803ZM95.7681 49.2115C95.6536 49.795 95.5086 50.3633 95.0355 50.7877C94.8981 50.9089 94.7455 50.9999 94.5929 51.0529C94.2495 51.1666 93.8908 51.0302 93.9366 50.3406C93.9976 49.7192 94.0892 49.113 94.5929 48.6583C94.8371 48.4385 95.1118 48.4613 95.3865 48.6052C95.6307 48.7341 95.8291 48.8932 95.7681 49.2115Z" fill="#616465"></path><path d="M100.986 47.9235C100.811 47.8704 100.506 47.734 100.414 48.1205C100.376 48.2796 100.277 48.1584 100.223 48.1053C99.6356 47.5749 98.5901 47.7871 98.1018 48.4236C97.6286 49.045 97.4531 49.7801 97.4531 50.5454C97.4608 51.4017 97.9949 51.7806 98.5673 51.7579C98.8954 51.7806 99.1777 51.6442 99.4372 51.4775C99.6051 51.3714 99.7424 51.1896 99.7577 51.5684C99.7577 51.6291 99.8493 51.667 99.9408 51.6821C100.299 51.7427 100.429 51.6366 100.506 51.235C100.689 50.2954 100.887 49.3557 101.078 48.416C101.108 48.2342 101.208 47.9917 100.986 47.9235ZM100.086 49.4087C99.9408 49.9543 99.7653 50.4696 99.3151 50.841C99.1014 51.0153 98.8343 51.1668 98.5596 51.0531C98.2849 50.9319 98.262 50.6515 98.2849 50.3787C98.2849 50.3636 98.2849 50.356 98.2849 50.3408C98.3231 49.7422 98.4299 49.1662 98.8725 48.7191C99.1167 48.4691 99.5059 48.4236 99.7959 48.6055C100.086 48.7949 100.177 49.0526 100.086 49.4087Z" fill="#616465"></path><path d="M87.474 47.8842C87.2832 47.9221 87.3519 48.1342 87.2145 48.1949C86.7033 47.6796 85.8944 47.7629 85.3831 48.0585C84.6658 48.4752 84.1774 50.0893 84.3834 50.8017C84.6429 51.6959 85.2686 51.999 86.1004 51.5898C86.2683 51.5064 86.4209 51.4079 86.6117 51.2942C86.5659 51.6125 86.7109 51.6731 86.978 51.6883C87.329 51.7034 87.329 51.4534 87.3671 51.2564C87.5808 50.294 87.7716 49.3316 87.9776 48.3767C88.0616 47.9827 87.8708 47.8084 87.474 47.8842ZM87.0085 49.1421C86.8482 49.8772 86.6956 50.6274 85.9096 50.9987C85.4976 51.1957 85.1771 50.9987 85.1618 50.5516C85.1465 49.8544 85.2686 49.1951 85.7875 48.6723C86.0394 48.4222 86.3446 48.4601 86.6193 48.5889C86.8253 48.6874 87.039 48.839 87.0085 49.1421Z" fill="#616465"></path><path d="M77.2864 48.1196C76.7446 47.7104 76.1418 47.718 75.5542 47.9756C74.5088 48.4303 74.2722 49.37 74.1654 50.3703C74.1196 51.1432 74.5622 51.56 74.9437 51.6737C75.5084 51.8404 76.0807 51.7646 76.6378 51.5979C76.8896 51.5221 77.0041 51.3327 77.0117 51.0599C77.0117 50.8553 76.9201 50.8174 76.7599 50.8553C76.5615 50.9083 76.3631 51.0068 76.157 51.0371C75.8137 51.0902 75.455 51.166 75.165 50.878C74.9514 50.6582 74.9437 50.4006 75.0277 50.1354C75.104 49.9004 75.3253 50.0217 75.4779 50.0217C75.8976 50.0293 76.302 49.9535 76.6988 49.8474C77.1567 49.7186 77.5382 49.4533 77.6145 48.9305C77.6451 48.6122 77.5535 48.3166 77.2864 48.1196ZM76.5081 49.2412C76.096 49.4306 75.661 49.423 75.1956 49.4003C75.455 48.741 75.8365 48.4455 76.3631 48.4985C76.531 48.5137 76.7294 48.544 76.7599 48.7637C76.798 48.9759 76.7217 49.1351 76.5081 49.2412Z" fill="#616465"></path><path d="M94.3104 9.58577C94.3028 9.61608 94.3028 9.67671 94.2875 9.73733C94.1807 10.0783 94.0815 10.3815 94.6462 10.3966C94.9056 10.4042 95.0201 10.6467 95.0125 10.9271C95.0125 11.2832 94.7835 11.556 94.5241 11.5485C93.8907 11.5181 93.8907 11.9274 93.822 12.3366C93.7305 12.8822 93.6389 13.4202 93.5397 13.9658C93.5092 14.1401 93.5397 14.2462 93.7305 14.3068C94.2036 14.4584 94.3562 14.6781 94.2646 15.0191C94.1654 15.4056 93.761 15.6557 93.3337 15.6026C92.3569 15.4738 91.9296 14.8297 92.1356 13.8597C92.2806 13.1777 92.3798 12.4805 92.5095 11.7909C92.5324 11.6849 92.5782 11.6167 92.4103 11.6015C92.1051 11.5712 91.9219 11.3666 91.9143 11.0786C91.9067 10.7604 92.0898 10.4875 92.395 10.4345C92.83 10.3663 92.8453 10.0708 92.8758 9.76764C92.914 9.38875 93.0742 9.10836 93.4557 8.9568C93.9136 8.76736 94.3333 9.05532 94.3104 9.58577Z" fill="#2E73B5"></path><path d="M90.7151 10.5547C89.9825 10.0848 89.2041 10.0545 88.4334 10.5016C88.3495 10.5547 88.2732 10.6987 88.1129 10.5623C87.5024 10.0621 86.9072 10.2819 86.7622 11.0548C86.4036 12.9948 86.0525 14.9423 85.7091 16.8898C85.6634 17.1323 85.7091 17.3521 85.9533 17.5188C86.3883 17.8067 87.0369 17.5188 87.1361 16.9732C87.2201 16.5033 87.2964 16.0335 87.3727 15.5712C87.4032 15.397 87.4414 15.2984 87.6474 15.4045C88.4868 15.8137 89.2957 15.6849 90.0435 15.1999C91.0966 14.5179 91.3408 13.4494 91.4171 12.3582C91.4019 11.6232 91.3408 10.9563 90.7151 10.5547ZM89.3491 14.0557C89.0286 14.3815 88.6166 14.4649 88.1968 14.3057C87.7848 14.1466 87.7314 13.7677 87.7542 13.3888C87.7848 12.7523 87.9069 12.1385 88.4487 11.7065C88.6547 11.5398 88.8913 11.4792 89.1583 11.4792C89.6086 11.4868 89.8909 11.6989 89.9367 12.1385C89.9901 12.8508 89.8757 13.5176 89.3491 14.0557Z" fill="#2E73B5"></path><path d="M96.7291 13.4651C96.9275 13.3893 97.1335 13.4272 97.3319 13.4121C97.9271 13.3666 98.5071 13.2605 99.0413 12.9801C99.5983 12.6846 99.8501 12.2148 99.812 11.5858C99.7815 11.0326 99.4762 10.6916 99.0031 10.4567C97.8585 9.89593 96.3094 10.3203 95.5768 11.3964C95.2258 11.9192 95.0579 12.4952 94.9816 13.1165C94.8061 14.473 95.5005 15.7158 97.1183 15.6248C97.8356 15.6476 98.4995 15.4884 99.0642 15.0262C99.4686 14.6927 99.4228 14.2002 98.9878 13.9653C98.7208 13.8213 98.4842 13.8971 98.24 14.041C97.7516 14.3214 97.2327 14.4503 96.6833 14.2305C96.4238 14.1244 96.3552 13.9046 96.3628 13.647C96.3704 13.3439 96.5993 13.5182 96.7291 13.4651ZM97.1106 11.6085C97.4235 11.5252 97.7287 11.4039 98.0645 11.4873C98.1942 11.5176 98.3621 11.5328 98.385 11.6995C98.4079 11.8738 98.2705 11.9799 98.1408 12.0481C97.6677 12.2905 97.1564 12.3057 96.6146 12.3057C96.7825 12.0481 96.752 11.6995 97.1106 11.6085Z" fill="#2E73B5"></path></svg>